<svg xmlns="http://www.w3.org/2000/svg" xmlns:xlink="http://www.w3.org/1999/xlink" xml:space="preserve" style="shape-rendering:geometricPrecision;text-rendering:geometricPrecision;image-rendering:optimizeQuality;" viewBox="0 0 0.278756 0.403955" x="0px" y="0px" fill-rule="evenodd" clip-rule="evenodd"><defs><style type="text/css">
   
    .fil0 {fill:black}
   
  </style></defs><g><path class="fil0" d="M0.109036 0.121575c-0.00468491,-0.0188066 -0.0129878,-0.0327156 -0.0246174,-0.0426681 -0.0131768,-0.0112831 -0.0576204,-0.0332825 -0.0677422,-0.00833835 -0.00241725,0.00597227 -0.000889739,0.0116926 0.00431878,0.0155665 0.020897,-0.000873991 0.0354518,0.00334243 0.0457074,0.013161l-7.87379e-006 7.87379e-006c0.00912966,0.00873597 0.014598,0.0217277 0.0179089,0.0393532 0.00337392,-0.00385028 0.00690925,-0.00737381 0.0105548,-0.0102162 0.00444082,-0.00346447 0.00908242,-0.00594865 0.0138776,-0.00686595zm-0.0471247 -0.00156295l0.000429122 1.18107e-005c-0.0027952,-0.00503923 -0.00761002,-0.00936981 -0.0167043,-0.0120902 -0.0186058,0.0326408 0.0011417,0.0437074 0.0262552,0.0426681 -0.00319282,-0.00437783 -0.00422035,-0.00970051 -0.00516521,-0.0151374 -0.0013661,0.000944855 -0.00302747,0.00149996 -0.00481482,0.00149996 -0.00468097,0 -0.00847614,-0.00379517 -0.00847614,-0.00847614 0,-0.00468097 0.00379517,-0.00847614 0.00847614,-0.00847614zm0.161456 0c0.00468097,0 0.00847614,0.00379517 0.00847614,0.00847614 0,0.00468097 -0.00379517,0.00847614 -0.00847614,0.00847614 -0.00189365,0 -0.00364163,-0.000625967 -0.00505498,-0.00167318 -0.000948792,0.00549984 -0.00197239,0.0108855 -0.0051967,0.0153067 0.0251095,0.00104721 0.0448609,-0.0100273 0.0262591,-0.0426681 -0.00910604,0.00272433 -0.0139248,0.00705886 -0.0167161,0.0121099l0.000708641 -2.75583e-005zm-0.0718995 0.196431c0,0.00895644 -0.0178105,0.00895644 -0.0178105,0l2.75583e-005 -0.0245623c-0.00469278,-0.000578724 -0.0093895,-0.00161806 -0.0140862,-0.00312196l0 0.0183144c0,0.00895644 -0.0178105,0.00895644 -0.0178105,0 0,-0.00430303 -0.000629903,-0.0233458 0.000354321,-0.0260465 -0.0127792,-0.00722421 -0.0255623,-0.0178735 -0.0383375,-0.0319676 -0.0132201,0.00456286 -0.0266843,0.00765333 -0.0398375,0.00699587 -0.0123934,-0.00062203 -0.0248891,-0.00843677 -0.0239127,-0.0217238 0.00091336,-0.0122949 0.0125036,-0.0176215 0.0238655,-0.0160468 0.000988161,0.000137791 0.0019842,0.000244088 0.00297629,0.000322826l0 -0.0867574c0,-0.0143657 0.00214561,-0.0273496 0.00601558,-0.0389517 -0.00391721,-0.00027952 -0.00815331,-0.000303141 -0.012728,-7.08641e-005l-0.00197632 -0.000547229c-0.00841709,-0.00553921 -0.0114879,-0.0148815 -0.00770844,-0.0242119 0.00806276,-0.019838 0.027574,-0.0164917 0.0439318,-0.011854 0.016346,-0.0177908 0.0384595,-0.0290464 0.0621006,-0.0337589 0.00183459,-0.0127004 0.0127634,-0.0224561 0.0259717,-0.0224561 0.0132122,0 0.0241411,0.00975563 0.0259717,0.0224561 0.0236411,0.0047164 0.0457507,0.0159759 0.0621045,0.0337628 0.0162161,-0.0045983 0.0359478,-0.00778718 0.0439279,0.0118501 0.00378336,0.00933045 0.000708641,0.0186727 -0.00770451,0.0242119l-0.00197632 0.000547229c-0.00457861,-0.000232277 -0.00881077,-0.000208656 -0.0127319,7.08641e-005 0.00387391,0.011602 0.00601558,0.024582 0.00601558,0.0389517l0 0.0861511c0.0103383,-0.000346447 0.0197908,0.00553528 0.02059,0.0163302 0.000980287,0.0132831 -0.0115154,0.0211096 -0.0239127,0.0217238 -0.0116099,0.000582661 -0.0233458,-0.0018031 -0.0349242,-0.00554315 -0.0123028,0.0133225 -0.0246017,0.0234678 -0.0369123,0.0304361 0.00100785,0.00267709 0.000381879,0.021834 0.000381879,0.0261252 0,0.00895644 -0.0178066,0.00895644 -0.0178066,0l0 -0.0183735c-0.00469672,0.00151571 -0.00939344,0.00256686 -0.0140902,0.00315739l3.14952e-005 0.0245859zm-0.0691319 -0.0735255c0.0408807,0.0410264 0.0786631,0.041298 0.119497,0.000822811l0.000488175 0.0107713c-0.0421563,0.037369 -0.0774821,0.037369 -0.119638,0l-0.000346447 -0.0115942zm0.00604707 -0.0347037c-0.0219639,0.00988948 -0.0436877,0.0196609 -0.0653761,0.0166609 -0.00732656,-0.00101572 -0.0157003,0.00156688 -0.0163066,0.00992492 -0.000700768,0.00947611 0.00917297,0.0141925 0.0175782,0.0146098 0.0218065,0.00108658 0.0453767,-0.00921234 0.0668839,-0.0186136 0.0178696,-0.0078108 0.034377,-0.0150271 0.0481522,-0.0150547 0.0148145,-0.000295267 0.0319204,0.0072872 0.0502269,0.0154011 0.0209797,0.00929895 0.0436129,0.0193341 0.0649391,0.0182672 0.0083974,-0.000417311 0.0182751,-0.00513765 0.0175782,-0.0146098 -0.000610219,-0.00835803 -0.008984,-0.0109367 -0.0163066,-0.00992492 -0.0216884,0.00299992 -0.0434161,-0.00677146 -0.0653761,-0.0166609 -0.0169877,-0.00764545 -0.0341447,-0.0153657 -0.0509986,-0.0168735 -0.0168539,0.00150783 -0.0340069,0.00922809 -0.0509946,0.0168735zm0.112205 -0.129307c-0.0116257,0.00995247 -0.0199246,0.0238694 -0.0246095,0.0426681 0.0047912,0.000917297 0.00942887,0.00340148 0.0138736,0.00686595 0.00364163,0.0028385 0.00717696,0.00636596 0.0105509,0.0102123 0.00331093,-0.0176294 0.00878715,-0.0306212 0.0179168,-0.0393572 0.0102556,-0.00981468 0.0248064,-0.014035 0.0456916,-0.013161 0.00520851,-0.00387391 0.00673997,-0.00959422 0.00431878,-0.0155665 -0.0100509,-0.024767 -0.0546992,-0.00282669 -0.0677422,0.00833835zm-0.058085 -0.0691043c0.0094643,0 0.0171255,0.0076612 0.0171255,0.0171255 0,0.00945643 -0.0076612,0.0171216 -0.0171255,0.0171216 -0.00945643,0 -0.0171216,-0.00766514 -0.0171216,-0.0171216 0,-0.0094643 0.00766514,-0.0171255 0.0171216,-0.0171255zm-0.0218695 0.13752c0.00896825,0 0.0162436,0.00727539 0.0162436,0.0162436 0,0.00897219 -0.00727539,0.0162476 -0.0162436,0.0162476 -0.00897219,0 -0.0162476,-0.00727539 -0.0162476,-0.0162476 0,-0.00896825 0.00727539,-0.0162436 0.0162476,-0.0162436zm0.0437429 0c0.00897219,0 0.0162436,0.00727539 0.0162436,0.0162436 0,0.00897219 -0.00727145,0.0162476 -0.0162436,0.0162476 -0.00897219,0 -0.0162476,-0.00727539 -0.0162476,-0.0162476 0,-0.00896825 0.00727539,-0.0162436 0.0162476,-0.0162436z"/><path class="fil0" d="M0.142311 0.0158657c0.0059329,0 0.0107438,0.00481089 0.0107438,0.0107438 0,0.0059329 -0.00481089,0.0107438 -0.0107438,0.0107438 -0.0059329,0 -0.0107438,-0.00481089 -0.0107438,-0.0107438 0,-0.0059329 0.00481089,-0.0107438 0.0107438,-0.0107438z"/></g><text x="0" y="15.323164" fill="#000000" font-size="5px" font-weight="bold" font-family="'Helvetica Neue', Helvetica, Arial-Unicode, Arial, Sans-serif">Created by Andy Mc</text><text x="0" y="20.323164" fill="#000000" font-size="5px" font-weight="bold" font-family="'Helvetica Neue', Helvetica, Arial-Unicode, Arial, Sans-serif">from the Noun Project</text></svg>